HIERARCHY
ROOT Hips
{
	OFFSET 0.000000 0.000000 0.000000
	CHANNELS 6 Xposition Yposition Zposition Zrotation Yrotation Xrotation 
	JOINT LowerBack
	{
		OFFSET 0.000000 0.000000 0.000000
		CHANNELS 3 Zrotation Yrotation Xrotation
		JOINT Spine
		{
			OFFSET 0.028270 2.035590 -0.193380
			CHANNELS 3 Zrotation Yrotation Xrotation
			JOINT Spine1
			{
				OFFSET 0.056720 2.048850 -0.042750
				CHANNELS 3 Zrotation Yrotation Xrotation
				JOINT Neck
				{
					OFFSET 0.000000 0.000000 0.000000
					CHANNELS 3 Zrotation Yrotation Xrotation
					JOINT Neck1
					{
						OFFSET -0.054170 1.746240 0.172020
						CHANNELS 3 Zrotation Yrotation Xrotation
						JOINT Head
						{
							OFFSET 0.104070 1.761360 -0.123970
							CHANNELS 3 Zrotation Yrotation Xrotation
							End Site
							{
								OFFSET 0.000000 0.000000 0.000000
							}
						}
					}
				}
				JOINT LeftShoulder
				{
					OFFSET 0.000000 0.000000 0.000000
					CHANNELS 3 Zrotation Yrotation Xrotation
					JOINT LeftArm
					{
						OFFSET 3.362410 1.200890 -0.311210
						CHANNELS 3 Zrotation Yrotation Xrotation
						JOINT LeftForeArm
						{
							OFFSET 4.983000 -0.000000 -0.000000
							CHANNELS 3 Zrotation Yrotation Xrotation
							JOINT LeftHand
							{
								OFFSET 3.483560 -0.000000 -0.000000
								CHANNELS 3 Zrotation Yrotation Xrotation
								JOINT LeftFingerBase
								{
									OFFSET 0.000000 0.000000 0.000000
									CHANNELS 3 Zrotation Yrotation Xrotation
									JOINT LeftHandIndex1
									{
										OFFSET 0.715260 -0.000000 -0.000000
										CHANNELS 3 Zrotation Yrotation Xrotation
										End Site
										{
											OFFSET 0.000000 0.000000 0.000000
										}
									}
								}
								JOINT LThumb
								{
									OFFSET 0.000000 0.000000 0.000000
									CHANNELS 3 Zrotation Yrotation Xrotation
									End Site
									{
										OFFSET 0.000000 0.000000 0.000000
									}
								}
							}
						}
					}
				}
				JOINT RightShoulder
				{
					OFFSET 0.000000 0.000000 0.000000
					CHANNELS 3 Zrotation Yrotation Xrotation
					JOINT RightArm
					{
						OFFSET -3.136600 1.374050 -0.404650
						CHANNELS 3 Zrotation Yrotation Xrotation
						JOINT RightForeArm
						{
							OFFSET -5.241900 -0.000000 -0.000000
							CHANNELS 3 Zrotation Yrotation Xrotation
							JOINT RightHand
							{
								OFFSET -3.444170 -0.000000 -0.000000
								CHANNELS 3 Zrotation Yrotation Xrotation
								JOINT RightFingerBase
								{
									OFFSET 0.000000 0.000000 0.000000
									CHANNELS 3 Zrotation Yrotation Xrotation
									JOINT RightHandIndex1
									{
										OFFSET -0.622530 -0.000000 -0.000000
										CHANNELS 3 Zrotation Yrotation Xrotation
										End Site
										{
											OFFSET 0.000000 0.000000 0.000000
										}
									}
								}
								JOINT RThumb
								{
									OFFSET 0.000000 0.000000 0.000000
									CHANNELS 3 Zrotation Yrotation Xrotation
									End Site
									{
										OFFSET 0.000000 0.000000 0.000000
									}
								}
							}
						}
					}
				}
			}
		}
	}
}
}
MOTION
Frames: 18
Frame Time: 0.008333
2.486214 16.753202 1.320308 -151.895460 -89.569939 156.138419 -0.119527 -4.386027 -6.999089 0.010653 -4.526815 -3.444618 -3.527540 -4.611238 2.964933 14.661681 -25.866537 -12.721134 -0.773367 0.020097 -1.249211 0.000000 0.000000 0.000000 16.671153 14.548594 -1.273508 -39.061980 3.430080 -22.265443 -179.772196 -52.011851 -179.991509 -2.605007 -5.527310 0.152214 0.214770 0.715368 -0.000000 0.000000 0.000000 0.000000 0.000000 0.000000 0.000000 7.583479 -20.730061 -2.369878 33.283211 9.617703 -7.404667 179.345856 52.853136 179.911763 -13.740007 7.390360 -0.996456 0.436616 -0.632539 0.000000 0.000000 0.000000 0.000000 0.000000 0.000000 0.000000 
2.470403 16.753934 1.331783 2.523198 -88.203440 1.942888 -0.509588 -4.641620 -7.206835 -0.010466 -4.751511 -3.470279 -3.457174 -4.843400 3.006435 14.675477 -25.987110 -12.888644 -0.779889 0.023723 -1.291141 0.000000 0.000000 0.000000 16.814562 14.310492 -1.316154 -39.964177 3.212037 -22.052678 -179.759699 -51.318486 -179.990443 -2.728512 -5.467038 0.158025 0.223712 0.722486 -0.000000 0.000000 0.000000 0.000000 0.000000 0.000000 0.000000 7.516241 -20.988951 -2.425889 33.599099 9.749852 -7.334500 179.323895 52.528317 179.909637 -14.118310 7.399970 -1.026204 0.455043 -0.636094 -0.000000 0.000000 0.000000 0.000000 0.000000 0.000000 0.000000 
2.456071 16.758460 1.335735 -0.094116 -86.225584 4.704458 -0.615771 -4.797402 -7.336176 -0.008703 -4.896654 -3.483243 -3.439540 -4.987509 3.044938 14.708956 -26.137620 -13.062621 -0.782799 0.026965 -1.336768 0.000000 0.000000 0.000000 17.035635 14.111827 -1.365611 -40.903034 3.030567 -21.890783 -179.748310 -50.595893 -179.989198 -2.872660 -5.397372 0.164545 0.233901 0.728107 -0.000000 0.000000 0.000000 0.000000 0.000000 0.000000 0.000000 7.432836 -21.222269 -2.458201 34.120590 9.965342 -7.221591 179.291944 52.205143 179.907548 -14.398370 7.282938 -1.032073 0.470926 -0.637760 -0.000000 0.000000 0.000000 0.000000 0.000000 0.000000 0.000000 
2.440721 16.766836 1.338568 -1.275087 -84.154524 6.031200 -0.707576 -4.942817 -7.474049 -0.005416 -5.032933 -3.494978 -3.424490 -5.122542 3.099401 14.701158 -26.305402 -13.256168 -0.774728 0.031622 -1.387882 0.000000 0.000000 0.000000 17.263273 13.950663 -1.416534 -41.918726 2.813304 -21.744070 -179.735448 -49.857053 -179.987800 -3.028926 -5.326076 0.171559 0.244968 0.734366 -0.000000 0.000000 0.000000 0.000000 0.000000 0.000000 0.000000 7.253863 -21.476053 -2.493470 34.815621 10.213838 -7.113663 179.257960 51.910795 179.905870 -14.550778 7.044928 -1.011666 0.482405 -0.636303 -0.000000 0.000000 0.000000 0.000000 0.000000 0.000000 0.000000 
2.423935 16.779313 1.340197 -1.861224 -82.016874 6.770365 -0.814628 -5.067336 -7.625056 -0.007990 -5.147601 -3.505961 -3.414456 -5.235887 3.170225 14.658581 -26.486993 -13.472151 -0.755424 0.037793 -1.445453 0.000000 0.000000 0.000000 17.488775 13.853013 -1.471412 -42.978995 2.507516 -21.580084 -179.718800 -49.125371 -179.986311 -3.189542 -5.263747 0.178870 0.256378 0.741563 -0.000000 0.000000 0.000000 0.000000 0.000000 0.000000 0.000000 6.992919 -21.743172 -2.527494 35.648104 10.446683 -7.057379 179.222714 51.638095 179.904690 -14.572646 6.711327 -0.968691 0.489051 -0.632145 -0.000000 0.000000 0.000000 0.000000 0.000000 0.000000 0.000000 
2.405511 16.796087 1.340565 -2.145589 -79.832130 7.219516 -0.951535 -5.160221 -7.791838 -0.021586 -5.228789 -3.516983 -3.413570 -5.315461 3.254779 14.593567 -26.669330 -13.710796 -0.726248 0.045366 -1.509733 0.000000 0.000000 0.000000 17.704482 13.840800 -1.533162 -44.046250 2.051441 -21.356015 -179.693929 -48.427586 -179.984768 -3.348244 -5.219994 0.186583 0.267496 0.749987 -0.000000 0.000000 0.000000 0.000000 0.000000 0.000000 0.000000 6.671198 -22.006061 -2.555481 36.558396 10.602286 -7.102437 179.189135 51.359072 179.903964 -14.491652 6.322776 -0.911443 0.491548 -0.626237 -0.000000 0.000000 0.000000 0.000000 0.000000 0.000000 0.000000 
2.385628 16.817199 1.339454 -2.224901 -77.616174 7.471981 -1.137696 -5.211515 -7.968070 -0.053229 -5.264891 -3.527157 -3.428262 -5.349222 3.348438 14.523737 -26.820055 -13.967923 -0.690399 0.053984 -1.579832 0.000000 0.000000 0.000000 17.906298 13.942714 -1.605141 -45.076988 1.358139 -21.017150 -179.653193 -47.798146 -179.983144 -3.502741 -5.199768 0.194801 0.277614 0.759887 -0.000000 0.000000 0.000000 0.000000 0.000000 0.000000 0.000000 6.312859 -22.228140 -2.572568 37.479604 10.604836 -7.296910 179.162072 51.022448 179.903541 -14.350911 5.929241 -0.850514 0.491218 -0.619934 -0.000000 0.000000 0.000000 0.000000 0.000000 0.000000 0.000000 
2.363621 16.842576 1.338245 -2.280645 -75.370766 7.737830 -1.346648 -5.213843 -8.183794 -0.097549 -5.250751 -3.544630 -3.457180 -5.331705 3.443270 14.456525 -26.933982 -14.238016 -0.651697 0.063128 -1.654074 0.000000 0.000000 0.000000 18.074699 14.131357 -1.688175 -46.037572 0.430810 -20.532524 -179.591504 -47.231551 -179.981502 -3.646446 -5.213047 0.203529 0.286115 0.771380 -0.000000 0.000000 0.000000 0.000000 0.000000 0.000000 0.000000 5.941091 -22.399403 -2.571892 38.286455 10.451663 -7.662070 179.145175 50.588862 179.903055 -14.224867 5.559996 -0.794587 0.490968 -0.614087 -0.000000 0.000000 0.000000 0.000000 0.000000 0.000000 0.000000 
2.340815 16.871894 1.336057 -2.227980 -73.106544 7.905093 -1.621099 -5.162581 -8.408732 -0.167247 -5.177824 -3.563330 -3.509299 -5.253792 3.532668 14.409410 -26.950396 -14.504879 -0.615677 0.072006 -1.728450 0.000000 0.000000 0.000000 18.210932 14.444494 -1.785484 -46.879007 -0.857593 -19.842436 -179.497565 -46.783447 -179.979655 -3.785423 -5.250299 0.212872 0.292327 0.784500 -0.000000 0.000000 0.000000 0.000000 0.000000 0.000000 0.000000 5.573916 -22.460069 -2.549557 38.931384 10.087185 -8.216137 179.145004 50.003598 179.902303 -14.152837 5.261473 -0.751755 0.492126 -0.610153 -0.000000 0.000000 0.000000 0.000000 0.000000 0.000000 0.000000 
2.317432 16.904622 1.333832 -2.142039 -70.820822 8.059973 -1.946867 -5.058438 -8.655096 -0.258753 -5.047668 -3.587214 -3.581397 -5.116884 3.609438 14.377366 -26.852124 -14.751498 -0.586779 0.079822 -1.798247 0.000000 0.000000 0.000000 18.290148 14.859530 -1.895140 -47.567807 -2.521377 -18.930747 -179.365126 -46.460926 -179.977531 -3.919558 -5.307314 0.222730 0.295761 0.799150 -0.000000 0.000000 0.000000 0.000000 0.000000 0.000000 0.000000 5.218960 -22.396332 -2.502302 39.319763 9.574527 -8.930345 179.165472 49.263810 179.900970 -14.183158 5.044668 -0.725303 0.496731 -0.608586 -0.000000 0.000000 0.000000 0.000000 0.000000 0.000000 0.000000 
2.294706 16.940057 1.331699 -2.026146 -68.515994 8.192646 -2.327232 -4.905592 -8.915817 -0.372192 -4.863626 -3.615824 -3.669939 -4.924331 3.667153 14.343447 -26.621696 -14.951865 -0.567878 0.085783 -1.856490 0.000000 0.000000 0.000000 18.283895 15.359368 -2.013140 -48.067087 -4.593658 -17.795765 -179.190611 -46.291226 -179.974996 -4.051659 -5.372194 0.232808 0.296101 0.815123 -0.000000 0.000000 0.000000 0.000000 0.000000 0.000000 0.000000 4.867195 -22.199500 -2.430668 39.404117 9.014767 -9.744629 179.210122 48.414358 179.898895 -14.329289 4.908490 -0.715330 0.505318 -0.609583 -0.000000 0.000000 0.000000 0.000000 0.000000 0.000000 0.000000 
2.273982 16.977252 1.329758 -1.891255 -66.197091 8.298779 -2.754231 -4.712584 -9.186146 -0.503649 -4.634345 -3.649187 -3.766308 -4.685154 3.700904 14.271014 -26.252951 -15.073360 -0.560693 0.089071 -1.894329 0.000000 0.000000 0.000000 18.153267 15.914074 -2.130028 -48.346264 -7.075339 -16.464923 -178.976372 -46.290894 -179.971951 -4.183143 -5.431098 0.242808 0.293327 0.832160 -0.000000 0.000000 0.000000 0.000000 0.000000 0.000000 0.000000 4.493567 -21.874935 -2.340069 39.153531 8.567613 -10.571546 179.280900 47.562312 179.896092 -14.567877 4.823847 -0.716642 0.516763 -0.612482 -0.000000 0.000000 0.000000 0.000000 0.000000 0.000000 0.000000 
2.256590 17.015178 1.327847 -1.740633 -63.878066 8.362999 -3.214214 -4.490093 -9.460558 -0.647203 -4.371244 -3.687268 -3.859297 -4.411458 3.706694 14.105716 -25.743998 -15.075446 -0.566816 0.088741 -1.900690 0.000000 0.000000 0.000000 17.855300 16.482463 -2.230816 -48.378901 -9.939036 -14.991519 -178.733130 -46.476065 -179.968350 -4.315391 -5.470150 0.252033 0.287863 0.849932 -0.000000 0.000000 0.000000 0.000000 0.000000 0.000000 0.000000 4.062671 -21.430929 -2.239781 38.554020 8.419900 -11.319619 179.378148 46.879963 179.892812 -14.830460 4.731871 -0.717763 0.527504 -0.615505 -0.000000 0.000000 0.000000 0.000000 0.000000 0.000000 0.000000 
2.244107 17.052733 1.325484 -1.578457 -61.582515 8.363488 -3.685508 -4.248520 -9.732450 -0.795074 -4.086431 -3.730348 -3.937300 -4.116225 3.679841 13.780344 -25.092028 -14.912680 -0.589558 0.083608 -1.863073 0.000000 0.000000 0.000000 17.350463 17.009760 -2.296336 -48.145769 -13.121238 -13.448367 -178.482186 -46.858257 -179.964237 -4.449677 -5.477965 0.260184 0.280736 0.868026 -0.000000 0.000000 0.000000 0.000000 0.000000 0.000000 0.000000 3.541136 -20.867307 -2.140607 37.596080 8.747926 -11.925511 179.501868 46.594876 179.889512 -15.015835 4.556120 -0.702728 0.531544 -0.615965 -0.000000 0.000000 0.000000 0.000000 0.000000 0.000000 0.000000 
2.237621 17.088925 1.321893 -1.403446 -59.344802 8.277446 -4.138045 -3.995127 -9.996102 -0.937940 -3.789912 -3.779793 -3.989858 -3.810434 3.613974 13.224640 -24.293335 -14.543479 -0.635181 0.072340 -1.769875 0.000000 0.000000 0.000000 16.614718 17.425809 -2.307370 -47.640977 -16.509760 -11.920926 -178.255719 -47.434460 -179.959776 -4.587754 -5.448426 0.267062 0.273713 0.885866 -0.000000 0.000000 0.000000 0.000000 0.000000 0.000000 0.000000 2.915843 -20.170852 -2.051281 36.257940 9.673053 -12.381208 179.654394 46.975088 179.886722 -15.027801 4.231472 -0.657879 0.521786 -0.611178 -0.000000 0.000000 0.000000 0.000000 0.000000 0.000000 0.000000 
2.238120 17.122851 1.316049 -1.214718 -57.207910 8.083250 -4.538031 -3.730506 -10.239588 -1.067302 -3.485665 -3.835503 -4.013037 -3.498615 3.503360 12.389553 -23.354000 -13.948569 -0.710844 0.054104 -1.615578 0.000000 0.000000 0.000000 15.629605 17.686951 -2.252869 -46.857237 -20.006308 -10.482061 -178.089763 -48.213506 -179.955212 -4.729717 -5.377401 0.272463 0.268611 0.902493 0.000000 0.000000 0.000000 0.000000 0.000000 0.000000 0.000000 2.225308 -19.332423 -1.976785 34.478421 11.239723 -12.743811 179.844279 48.304764 179.884745 -14.842699 3.735785 -0.580548 0.493335 -0.599761 -0.000000 0.000000 0.000000 0.000000 0.000000 0.000000 0.000000 
2.245986 17.153868 1.306920 -1.011437 -55.219225 7.773831 -4.848588 -3.448335 -10.448336 -1.175127 -3.171037 -3.899991 -4.007919 -3.178454 3.332535 11.249721 -22.274292 -13.133805 -0.822519 0.028837 -1.401142 0.000000 0.000000 0.000000 14.425777 17.710298 -2.135196 -45.832622 -23.411355 -9.211126 -178.020527 -49.158313 -179.950901 -4.877884 -5.273753 0.276575 0.267740 0.916656 0.000000 0.000000 0.000000 0.000000 0.000000 0.000000 0.000000 1.512335 -18.323076 -1.911459 32.212316 13.332915 -13.122968 -179.919694 50.837687 179.883551 -14.522285 3.136244 -0.485835 0.445654 -0.583770 -0.000000 0.000000 0.000000 0.000000 0.000000 0.000000 0.000000 
2.261125 17.181604 1.293349 -0.785476 -53.425767 7.344120 -5.046665 -3.134542 -10.592999 -1.260222 -2.834782 -3.970881 -3.990470 -2.837981 3.091112 9.835932 -21.052308 -12.147328 -0.966918 -0.001692 -1.139158 0.000000 0.000000 0.000000 13.032486 17.499893 -1.974414 -44.587750 -26.644421 -8.143467 -178.063384 -50.257680 -179.947175 -5.024935 -5.143128 0.279284 0.271635 0.927012 0.000000 0.000000 0.000000 0.000000 0.000000 0.000000 0.000000 0.828623 -17.125493 -1.846585 29.450646 15.711197 -13.639207 -179.645442 54.761009 179.882645 -14.211902 2.550518 -0.396805 0.384045 -0.566866 -0.000000 0.000000 0.000000 0.000000 0.000000 0.000000 0.000000 
